<svg id="string" xmlns="http://www.w3.org/2000/svg" viewBox="0 0 469 300"><defs><style>.cls-1{fill:#5a5a5a;}.cls-2{fill:#999;}</style></defs><title>data-structures-</title><path class="cls-1" d="M371.44,103.63H361.08v3h10.36a13.51,13.51,0,0,1,13.5,13.5V201a13.51,13.51,0,0,1-13.5,13.5H66.81A13.52,13.52,0,0,1,53.31,201v-80.9a13.52,13.52,0,0,1,13.5-13.5H82.38v-3H66.81a16.52,16.52,0,0,0-16.5,16.5V201a16.52,16.52,0,0,0,16.5,16.5H371.44a16.52,16.52,0,0,0,16.5-16.5v-80.9A16.52,16.52,0,0,0,371.44,103.63Z"/><rect class="cls-1" x="152.02" y="103.63" width="171.42" height="3"/><path class="cls-1" d="M94.12,101.58a.72.72,0,0,1-.18.2.5.5,0,0,1-.26.06.79.79,0,0,1-.34-.09l-.43-.2a3.51,3.51,0,0,0-.55-.21,2.73,2.73,0,0,0-.74-.09,1.73,1.73,0,0,0-1,.28.85.85,0,0,0-.38.73.68.68,0,0,0,.19.5,1.76,1.76,0,0,0,.52.36,5,5,0,0,0,.72.27l.83.27a8.36,8.36,0,0,1,.83.32,3,3,0,0,1,.72.47,2.29,2.29,0,0,1,.51.68,2.16,2.16,0,0,1,.2,1,2.9,2.9,0,0,1-.25,1.22,2.74,2.74,0,0,1-.71,1,3.44,3.44,0,0,1-1.15.64,5.1,5.1,0,0,1-1.58.23,4.73,4.73,0,0,1-.93-.09,6,6,0,0,1-.88-.24,4.54,4.54,0,0,1-.77-.36,3.91,3.91,0,0,1-.63-.45l.52-.84a.66.66,0,0,1,.23-.24.72.72,0,0,1,.73,0l.43.25a3.87,3.87,0,0,0,.57.25,2.49,2.49,0,0,0,.84.12,2,2,0,0,0,.68-.1,1.43,1.43,0,0,0,.46-.24.84.84,0,0,0,.27-.36,1,1,0,0,0,.09-.42.8.8,0,0,0-.19-.53,1.71,1.71,0,0,0-.52-.36,4.68,4.68,0,0,0-.73-.27l-.83-.27a6.15,6.15,0,0,1-.84-.34,2.83,2.83,0,0,1-.73-.49,2.17,2.17,0,0,1-.51-.73,2.47,2.47,0,0,1-.2-1,2.65,2.65,0,0,1,.23-1.08,2.62,2.62,0,0,1,.66-.9,3.45,3.45,0,0,1,1.09-.61,4.94,4.94,0,0,1,3.24.09,3.77,3.77,0,0,1,1.31.83Z"/><path class="cls-1" d="M100.33,99.63a4.59,4.59,0,0,1,1.6.28,3.61,3.61,0,0,1,1.27.82A3.57,3.57,0,0,1,104,102a4.92,4.92,0,0,1,.3,1.78c0,.17,0,.31,0,.42a.8.8,0,0,1-.08.26.29.29,0,0,1-.16.13.62.62,0,0,1-.25,0H98.1a3.16,3.16,0,0,0,.77,2.09,2.35,2.35,0,0,0,1.76.67,2.86,2.86,0,0,0,.93-.13,4.5,4.5,0,0,0,.69-.28l.51-.28a.9.9,0,0,1,.43-.12.56.56,0,0,1,.23,0,.61.61,0,0,1,.17.15l.65.81a3.82,3.82,0,0,1-.83.73,4.75,4.75,0,0,1-1,.47,5.11,5.11,0,0,1-1,.24,7.1,7.1,0,0,1-1,.08,5,5,0,0,1-1.79-.32,4.11,4.11,0,0,1-1.44-1,4.33,4.33,0,0,1-1-1.55,5.8,5.8,0,0,1-.35-2.13,5.2,5.2,0,0,1,.3-1.78,4.34,4.34,0,0,1,.88-1.45,4.15,4.15,0,0,1,1.4-1A4.57,4.57,0,0,1,100.33,99.63Zm0,1.6a2,2,0,0,0-1.52.55,2.64,2.64,0,0,0-.7,1.55h4.17a3,3,0,0,0-.11-.81,1.88,1.88,0,0,0-.36-.67,1.8,1.8,0,0,0-.62-.46A2.06,2.06,0,0,0,100.37,101.23Z"/><path class="cls-1" d="M109.16,109.16a2.44,2.44,0,0,1-1.84-.68,2.63,2.63,0,0,1-.65-1.88v-5.16h-.94a.42.42,0,0,1-.44-.47v-.88l1.49-.24.47-2.52a.46.46,0,0,1,.16-.28.52.52,0,0,1,.33-.1h1.15v2.91h2.43v1.58h-2.43v5a1,1,0,0,0,.22.67.74.74,0,0,0,.58.24.87.87,0,0,0,.34,0,1.08,1.08,0,0,0,.24-.1l.19-.1a.25.25,0,0,1,.16,0,.21.21,0,0,1,.16,0,.51.51,0,0,1,.14.15l.66,1.08a3.33,3.33,0,0,1-1.11.61A4.13,4.13,0,0,1,109.16,109.16Z"/><path class="cls-1" d="M112.81,102.65h4.66v1.85h-4.66Z"/><path class="cls-1" d="M121.81,95.64v7.66h.41a.68.68,0,0,0,.35-.07.79.79,0,0,0,.27-.23l2.3-2.84a1.37,1.37,0,0,1,.32-.28.88.88,0,0,1,.45-.1h2l-2.87,3.43c-.11.12-.21.24-.32.34a1.87,1.87,0,0,1-.35.28,1.4,1.4,0,0,1,.33.31c.1.12.19.25.29.39l3.08,4.48h-2a1,1,0,0,1-.44-.09.83.83,0,0,1-.32-.3L123,105.11a.86.86,0,0,0-.27-.27,1.07,1.07,0,0,0-.41-.06h-.5V109h-2.23V95.64Z"/><path class="cls-1" d="M132.76,99.63a4.65,4.65,0,0,1,1.61.28,3.48,3.48,0,0,1,1.26.82,3.58,3.58,0,0,1,.83,1.31,4.92,4.92,0,0,1,.3,1.78,2.42,2.42,0,0,1,0,.42.61.61,0,0,1-.08.26.31.31,0,0,1-.15.13.65.65,0,0,1-.26,0h-5.7a3.16,3.16,0,0,0,.76,2.09,2.37,2.37,0,0,0,1.77.67,2.86,2.86,0,0,0,.93-.13,4,4,0,0,0,.68-.28l.52-.28a.84.84,0,0,1,.42-.12.6.6,0,0,1,.24,0,.8.8,0,0,1,.17.15l.65.81a4.07,4.07,0,0,1-.83.73,5.33,5.33,0,0,1-1,.47,5,5,0,0,1-1,.24,7,7,0,0,1-1,.08,5,5,0,0,1-1.79-.32,4.11,4.11,0,0,1-1.44-1,4.5,4.5,0,0,1-1-1.55,6,6,0,0,1-.35-2.13,5.2,5.2,0,0,1,.31-1.78,4.18,4.18,0,0,1,.88-1.45,4.11,4.11,0,0,1,1.39-1A4.61,4.61,0,0,1,132.76,99.63Zm.05,1.6a2.07,2.07,0,0,0-1.53.55,2.7,2.7,0,0,0-.7,1.55h4.18a2.64,2.64,0,0,0-.12-.81,1.88,1.88,0,0,0-.36-.67,1.67,1.67,0,0,0-.61-.46A2.1,2.1,0,0,0,132.81,101.23Z"/><path class="cls-1" d="M141.54,111.55a.79.79,0,0,1-.25.35.74.74,0,0,1-.48.13h-1.66l1.73-3.7-3.74-8.55h2a.61.61,0,0,1,.41.12.86.86,0,0,1,.22.29l2,4.79c.06.16.12.32.17.49s.09.33.13.5c0-.17.1-.34.15-.5s.12-.33.19-.5l1.85-4.78a.64.64,0,0,1,.61-.41h1.79Z"/><path class="cls-1" d="M336.64,101.28a.6.6,0,0,1-.18.2.53.53,0,0,1-.26.06.75.75,0,0,1-.34-.09l-.43-.2a3.51,3.51,0,0,0-.55-.21,2.75,2.75,0,0,0-.74-.08,1.73,1.73,0,0,0-1,.27.85.85,0,0,0-.38.73.68.68,0,0,0,.19.5,1.6,1.6,0,0,0,.52.36,5,5,0,0,0,.72.27l.83.27a6.52,6.52,0,0,1,.83.33,2.68,2.68,0,0,1,.72.46,2.29,2.29,0,0,1,.51.68,2.19,2.19,0,0,1,.2,1A3,3,0,0,1,337,107a2.8,2.8,0,0,1-.71,1,3.44,3.44,0,0,1-1.15.64,5.1,5.1,0,0,1-1.58.23,4.91,4.91,0,0,1-.94-.09,6.2,6.2,0,0,1-.87-.24,4.2,4.2,0,0,1-.77-.36,3.38,3.38,0,0,1-.63-.45l.52-.84a.66.66,0,0,1,.23-.24.72.72,0,0,1,.73,0l.43.25a3.87,3.87,0,0,0,.57.25,2.49,2.49,0,0,0,.84.12,2.17,2.17,0,0,0,.67-.09,1.6,1.6,0,0,0,.47-.25.78.78,0,0,0,.27-.36,1,1,0,0,0,.09-.42.76.76,0,0,0-.2-.53,1.55,1.55,0,0,0-.51-.36,5.1,5.1,0,0,0-.73-.27l-.83-.27a7.71,7.71,0,0,1-.84-.33,2.86,2.86,0,0,1-.73-.5,2.23,2.23,0,0,1-.51-.72,2.55,2.55,0,0,1-.2-1,2.65,2.65,0,0,1,.23-1.08,2.5,2.5,0,0,1,.66-.89,3.28,3.28,0,0,1,1.09-.62,4.94,4.94,0,0,1,3.24.09,3.92,3.92,0,0,1,1.31.83Z"/><path class="cls-1" d="M342.84,99.33a4.61,4.61,0,0,1,1.61.28,3.61,3.61,0,0,1,1.27.82,3.65,3.65,0,0,1,.82,1.31,4.92,4.92,0,0,1,.3,1.78c0,.17,0,.31,0,.42a.73.73,0,0,1-.08.26.29.29,0,0,1-.16.13.62.62,0,0,1-.25,0h-5.71a3.16,3.16,0,0,0,.77,2.08,2.35,2.35,0,0,0,1.76.67,2.86,2.86,0,0,0,.93-.13,3.67,3.67,0,0,0,.69-.28l.51-.28a.9.9,0,0,1,.43-.12.56.56,0,0,1,.23.05.52.52,0,0,1,.17.16l.65.81a3.77,3.77,0,0,1-.83.72,4.75,4.75,0,0,1-1,.47,5.14,5.14,0,0,1-1,.25,8.87,8.87,0,0,1-1,.07,5,5,0,0,1-1.79-.32,4,4,0,0,1-1.44-1,4.29,4.29,0,0,1-1-1.54,5.89,5.89,0,0,1-.35-2.14,5.2,5.2,0,0,1,.3-1.78,4.44,4.44,0,0,1,.88-1.45,4.15,4.15,0,0,1,1.4-1A4.73,4.73,0,0,1,342.84,99.33Zm.05,1.6a2,2,0,0,0-1.52.55,2.64,2.64,0,0,0-.7,1.55h4.17a3,3,0,0,0-.11-.81,1.88,1.88,0,0,0-.36-.67,1.93,1.93,0,0,0-.62-.46A2.06,2.06,0,0,0,342.89,100.93Z"/><path class="cls-1" d="M351.68,108.86a2.42,2.42,0,0,1-1.84-.68,2.63,2.63,0,0,1-.65-1.88v-5.16h-.94a.49.49,0,0,1-.31-.11.48.48,0,0,1-.13-.35v-.89l1.49-.24.47-2.52a.42.42,0,0,1,.16-.28.59.59,0,0,1,.33-.1h1.15v2.91h2.43v1.58h-2.43v5a.93.93,0,0,0,.22.67.73.73,0,0,0,.58.25,1.11,1.11,0,0,0,.34,0,1.85,1.85,0,0,0,.24-.11l.19-.1a.33.33,0,0,1,.16,0,.25.25,0,0,1,.16,0,.69.69,0,0,1,.14.15l.66,1.08a3.33,3.33,0,0,1-1.11.61A4.13,4.13,0,0,1,351.68,108.86Z"/><path class="cls-2" d="M51.88,28.62h.57a1.53,1.53,0,0,0,.57-.1.85.85,0,0,0,.38-.3L57,23.67a1.32,1.32,0,0,1,.47-.4,1.56,1.56,0,0,1,.62-.11h2.09L55.8,28.57a3.28,3.28,0,0,1-.4.42,1.52,1.52,0,0,1-.4.28,1.76,1.76,0,0,1,.53.31,2.85,2.85,0,0,1,.47.5l4.51,6.1H58.37a1.3,1.3,0,0,1-.64-.13,1.09,1.09,0,0,1-.36-.35l-3.68-4.81a1.16,1.16,0,0,0-.4-.34,1.78,1.78,0,0,0-.64-.1h-.77v5.73H49.46v-13h2.42Z"/><path class="cls-2" d="M65.25,26.8a4.34,4.34,0,0,1,1.6.28,3.45,3.45,0,0,1,1.27.81A3.91,3.91,0,0,1,69,29.2,5.19,5.19,0,0,1,69.24,31a2.56,2.56,0,0,1,0,.42.57.57,0,0,1-.08.26.36.36,0,0,1-.16.14.82.82,0,0,1-.25,0H63a3.24,3.24,0,0,0,.77,2.09,2.38,2.38,0,0,0,1.76.66,3.3,3.3,0,0,0,.94-.12,5.61,5.61,0,0,0,.68-.28l.51-.28a.82.82,0,0,1,.43-.13.41.41,0,0,1,.23.06.35.35,0,0,1,.17.15l.65.81a3.34,3.34,0,0,1-.83.72,4.42,4.42,0,0,1-1,.47,5.42,5.42,0,0,1-1,.25,7,7,0,0,1-1,.07,5,5,0,0,1-1.8-.32,4.09,4.09,0,0,1-1.44-.94,4.73,4.73,0,0,1-1-1.55,6.12,6.12,0,0,1-.35-2.14,5,5,0,0,1,.31-1.78,4,4,0,0,1,2.27-2.42A4.61,4.61,0,0,1,65.25,26.8Zm0,1.59a2,2,0,0,0-1.52.55,2.73,2.73,0,0,0-.7,1.56h4.18a2.76,2.76,0,0,0-.12-.82,2,2,0,0,0-.36-.67,1.73,1.73,0,0,0-.61-.45A2.14,2.14,0,0,0,65.29,28.39Z"/><path class="cls-2" d="M74,38.71a.67.67,0,0,1-.74.48H71.64l1.73-3.7-3.74-8.55h2a.59.59,0,0,1,.41.13.89.89,0,0,1,.22.29l2,4.78c.06.16.12.32.17.49s.09.34.12.5c0-.17.1-.34.16-.5s.12-.33.19-.5l1.85-4.77a.7.7,0,0,1,.24-.3.61.61,0,0,1,.37-.12h1.78Z"/><path class="cls-2" d="M83.83,36.18V26.94h1.36a.55.55,0,0,1,.57.41l.15.73a4.87,4.87,0,0,1,.59-.53,4.46,4.46,0,0,1,.66-.4,3.09,3.09,0,0,1,.74-.26,3.91,3.91,0,0,1,.86-.09,3.35,3.35,0,0,1,1.35.25,2.6,2.6,0,0,1,1,.72,3.29,3.29,0,0,1,.6,1.11,4.87,4.87,0,0,1,.2,1.42v5.88H89.66V30.3a1.92,1.92,0,0,0-.4-1.31,1.44,1.44,0,0,0-1.17-.46,2.27,2.27,0,0,0-1.08.26,3.68,3.68,0,0,0-1,.71v6.68Z"/><path class="cls-2" d="M101.3,36.18h-1a1.09,1.09,0,0,1-.49-.1.6.6,0,0,1-.27-.38l-.2-.66a5.53,5.53,0,0,1-.69.55A4.13,4.13,0,0,1,98,36a4.5,4.5,0,0,1-.76.24,4.94,4.94,0,0,1-.9.08,3.4,3.4,0,0,1-1.08-.16,2.2,2.2,0,0,1-.85-.47,2.27,2.27,0,0,1-.56-.79,2.83,2.83,0,0,1-.19-1.09,2.24,2.24,0,0,1,.27-1,2.74,2.74,0,0,1,.91-.92,6,6,0,0,1,1.71-.68,10.79,10.79,0,0,1,2.63-.27v-.54A2.08,2.08,0,0,0,98.74,29a1.42,1.42,0,0,0-1.14-.44,2.88,2.88,0,0,0-.9.12,4.06,4.06,0,0,0-.62.28l-.49.29a1.06,1.06,0,0,1-.5.12.59.59,0,0,1-.38-.11,1.06,1.06,0,0,1-.27-.29l-.4-.71a5.49,5.49,0,0,1,3.84-1.46,3.71,3.71,0,0,1,1.45.27,3,3,0,0,1,1.07.73,3.14,3.14,0,0,1,.67,1.13,4.18,4.18,0,0,1,.23,1.44ZM97,34.79a3.06,3.06,0,0,0,.63-.06,2.55,2.55,0,0,0,.55-.19,2.8,2.8,0,0,0,.49-.3,6.2,6.2,0,0,0,.48-.43V32.26a9.09,9.09,0,0,0-1.62.12,4,4,0,0,0-1.05.32,1.3,1.3,0,0,0-.56.44,1.11,1.11,0,0,0,.18,1.4A1.55,1.55,0,0,0,97,34.79Z"/><path class="cls-2" d="M103.49,36.18V26.94h1.36a.54.54,0,0,1,.56.41l.15.68a4.7,4.7,0,0,1,.51-.49,3.12,3.12,0,0,1,.56-.39,2.85,2.85,0,0,1,.65-.26,3,3,0,0,1,.76-.09,2.15,2.15,0,0,1,1.44.47,2.86,2.86,0,0,1,.84,1.26,2.63,2.63,0,0,1,.54-.79,3,3,0,0,1,.71-.54,3,3,0,0,1,.82-.3,3.77,3.77,0,0,1,.88-.1,3.84,3.84,0,0,1,1.36.23,2.64,2.64,0,0,1,1,.69,3.14,3.14,0,0,1,.62,1.09,4.87,4.87,0,0,1,.21,1.49v5.88h-2.23V30.3a2,2,0,0,0-.38-1.33,1.42,1.42,0,0,0-1.14-.44,1.64,1.64,0,0,0-.63.11,1.39,1.39,0,0,0-.51.34,1.48,1.48,0,0,0-.35.55,2.3,2.3,0,0,0-.13.77v5.88h-2.23V30.3a2,2,0,0,0-.37-1.35,1.4,1.4,0,0,0-1.1-.42,1.77,1.77,0,0,0-.9.23,3,3,0,0,0-.78.66v6.76Z"/><path class="cls-2" d="M122.46,26.8a4.43,4.43,0,0,1,1.61.28,3.34,3.34,0,0,1,1.26.81,3.91,3.91,0,0,1,.83,1.31,5,5,0,0,1,.3,1.78,2.42,2.42,0,0,1,0,.42.57.57,0,0,1-.08.26.4.4,0,0,1-.15.14,1,1,0,0,1-.26,0h-5.7a3.18,3.18,0,0,0,.76,2.09,2.41,2.41,0,0,0,1.77.66,3.18,3.18,0,0,0,.93-.12,5,5,0,0,0,.68-.28l.51-.28a.82.82,0,0,1,.43-.13.5.5,0,0,1,.41.21l.65.81a3.73,3.73,0,0,1-.83.72,4.74,4.74,0,0,1-1,.47,5.07,5.07,0,0,1-1,.25,6.92,6.92,0,0,1-1,.07,5,5,0,0,1-1.79-.32,4,4,0,0,1-1.44-.94,4.59,4.59,0,0,1-1-1.55,6.12,6.12,0,0,1-.35-2.14,5,5,0,0,1,.31-1.78,4.28,4.28,0,0,1,.88-1.45,4.09,4.09,0,0,1,1.39-1A4.61,4.61,0,0,1,122.46,26.8Zm0,1.59a2.06,2.06,0,0,0-1.52.55,2.73,2.73,0,0,0-.7,1.56h4.18a2.76,2.76,0,0,0-.12-.82A2,2,0,0,0,124,29a1.65,1.65,0,0,0-.61-.45A2.14,2.14,0,0,0,122.5,28.39Z"/><path class="cls-2" d="M41.46,255.81a.74.74,0,0,1-.23.28.62.62,0,0,1-.31.08.84.84,0,0,1-.41-.14c-.15-.09-.32-.2-.53-.31a3.61,3.61,0,0,0-.71-.31,3.36,3.36,0,0,0-1.85,0,1.73,1.73,0,0,0-.63.34,1.27,1.27,0,0,0-.38.51,1.67,1.67,0,0,0-.13.67,1.15,1.15,0,0,0,.26.76,2,2,0,0,0,.68.52,5.33,5.33,0,0,0,1,.39l1.1.36a10.73,10.73,0,0,1,1.11.45,4.05,4.05,0,0,1,1,.65,2.93,2.93,0,0,1,.68,1,3.36,3.36,0,0,1,.26,1.38A4.29,4.29,0,0,1,42,264a3.76,3.76,0,0,1-.88,1.34,4.21,4.21,0,0,1-1.42.9,5.13,5.13,0,0,1-1.91.33,6.16,6.16,0,0,1-2.38-.47,6,6,0,0,1-1-.54,5.36,5.36,0,0,1-.86-.7l.7-1.16a.79.79,0,0,1,.24-.21.59.59,0,0,1,.31-.09.82.82,0,0,1,.49.19c.17.12.38.26.62.4a4.28,4.28,0,0,0,.83.41,3.1,3.1,0,0,0,1.16.19,2.36,2.36,0,0,0,1.6-.49,1.77,1.77,0,0,0,.57-1.41,1.34,1.34,0,0,0-.26-.84,2.2,2.2,0,0,0-.68-.54,5.33,5.33,0,0,0-1-.38l-1.1-.33a9.27,9.27,0,0,1-1.1-.43,3.57,3.57,0,0,1-1-.66,3,3,0,0,1-.68-1A3.88,3.88,0,0,1,34,257a3.63,3.63,0,0,1,1.12-2.58,4,4,0,0,1,1.33-.84,4.87,4.87,0,0,1,1.81-.31,6.1,6.1,0,0,1,2.13.36,4.67,4.67,0,0,1,1.65,1Z"/><path class="cls-2" d="M47.83,257.08a4.43,4.43,0,0,1,1.61.28,3.41,3.41,0,0,1,1.26.81,3.91,3.91,0,0,1,.83,1.31,5,5,0,0,1,.3,1.78,2.42,2.42,0,0,1,0,.42.57.57,0,0,1-.08.26.36.36,0,0,1-.16.14.82.82,0,0,1-.25,0h-5.7a3.2,3.2,0,0,0,.76,2.09,2.41,2.41,0,0,0,1.77.66,3.18,3.18,0,0,0,.93-.12,5,5,0,0,0,.68-.28l.51-.28a.82.82,0,0,1,.43-.13.5.5,0,0,1,.41.21l.64.81a3.48,3.48,0,0,1-.82.72,4.74,4.74,0,0,1-1,.47,5.24,5.24,0,0,1-1,.25,6.92,6.92,0,0,1-1,.07,5,5,0,0,1-1.79-.32,3.91,3.91,0,0,1-1.44-.94,4.59,4.59,0,0,1-1-1.55,6.12,6.12,0,0,1-.35-2.14,5,5,0,0,1,.31-1.78,4.28,4.28,0,0,1,.88-1.45,4.09,4.09,0,0,1,1.39-1A4.61,4.61,0,0,1,47.83,257.08Zm0,1.59a2.06,2.06,0,0,0-1.52.55,2.7,2.7,0,0,0-.7,1.56h4.18a2.76,2.76,0,0,0-.12-.82,2,2,0,0,0-.36-.67,1.73,1.73,0,0,0-.61-.45A2.14,2.14,0,0,0,47.87,258.67Z"/><path class="cls-2" d="M56.67,266.6a2.45,2.45,0,0,1-1.85-.68,2.62,2.62,0,0,1-.65-1.88v-5.15h-.93a.43.43,0,0,1-.31-.12.45.45,0,0,1-.13-.35v-.88l1.48-.25.47-2.52a.43.43,0,0,1,.17-.28.54.54,0,0,1,.33-.1H56.4v2.91h2.43v1.59H56.4v5a1,1,0,0,0,.21.67.73.73,0,0,0,.58.25,1.18,1.18,0,0,0,.35-.05l.24-.1.18-.11a.37.37,0,0,1,.17-.05.28.28,0,0,1,.16.05.69.69,0,0,1,.13.15l.67,1.08a3.48,3.48,0,0,1-1.12.61A4.07,4.07,0,0,1,56.67,266.6Z"/><path class="cls-2" d="M68,257.08a5.06,5.06,0,0,1,1.87.33,4.18,4.18,0,0,1,1.44.94,4.36,4.36,0,0,1,.92,1.5,5.81,5.81,0,0,1,.32,2,5.87,5.87,0,0,1-.32,2,4.36,4.36,0,0,1-.92,1.5,4,4,0,0,1-1.44,1,5.06,5.06,0,0,1-1.87.33,5.21,5.21,0,0,1-1.89-.33,4,4,0,0,1-1.44-1,4.23,4.23,0,0,1-.93-1.5,5.63,5.63,0,0,1-.33-2,5.58,5.58,0,0,1,.33-2,4.23,4.23,0,0,1,.93-1.5,4.18,4.18,0,0,1,1.44-.94A5.21,5.21,0,0,1,68,257.08Zm0,7.8a2,2,0,0,0,1.7-.77,4.9,4.9,0,0,0,0-4.55,2.27,2.27,0,0,0-3.43,0,4.86,4.86,0,0,0,0,4.53A2,2,0,0,0,68,264.88Z"/><path class="cls-2" d="M74.7,266.46v-7.57l-.8-.12a.9.9,0,0,1-.42-.18.49.49,0,0,1-.15-.38v-.91H74.7v-.68a4,4,0,0,1,.24-1.42,3.15,3.15,0,0,1,.68-1.08,3.08,3.08,0,0,1,1.09-.67,4.11,4.11,0,0,1,1.44-.23,3.81,3.81,0,0,1,1.19.17l0,1.11a.32.32,0,0,1-.24.33,2,2,0,0,1-.52.06,2.55,2.55,0,0,0-.71.09,1.15,1.15,0,0,0-.53.29,1.33,1.33,0,0,0-.32.56,2.66,2.66,0,0,0-.12.86v.61h2.41v1.59H76.93v7.57Z"/><path class="cls-2" d="M90.59,266.46a.55.55,0,0,1-.57-.41l-.18-.89a4.66,4.66,0,0,1-.6.58,3.34,3.34,0,0,1-.68.45,3.5,3.5,0,0,1-.78.3,3.73,3.73,0,0,1-.91.1,3.06,3.06,0,0,1-2.47-1.23,4.33,4.33,0,0,1-.7-1.48,7.27,7.27,0,0,1-.25-2,6.12,6.12,0,0,1,.28-1.91,4.64,4.64,0,0,1,.8-1.53,4,4,0,0,1,1.25-1,3.66,3.66,0,0,1,1.64-.36,3.08,3.08,0,0,1,1.32.25,3.13,3.13,0,0,1,1,.66v-4.88H92v13.38Zm-3-1.63a2.32,2.32,0,0,0,1.18-.29,3.45,3.45,0,0,0,.91-.82v-4.14a2.15,2.15,0,0,0-.82-.65,2.38,2.38,0,0,0-1-.19,2.09,2.09,0,0,0-.91.19,1.81,1.81,0,0,0-.69.57,2.8,2.8,0,0,0-.44,1,5.77,5.77,0,0,0-.15,1.4,6,6,0,0,0,.13,1.37,2.68,2.68,0,0,0,.37.92,1.51,1.51,0,0,0,.59.51A2,2,0,0,0,87.63,264.83Z"/><path class="cls-2" d="M97.05,254.53a1.25,1.25,0,0,1-.12.54,1.52,1.52,0,0,1-.31.44,1.37,1.37,0,0,1-.45.3,1.33,1.33,0,0,1-.56.11,1.24,1.24,0,0,1-.54-.11,1.27,1.27,0,0,1-.45-.3,1.32,1.32,0,0,1-.3-.44,1.24,1.24,0,0,1-.11-.54,1.33,1.33,0,0,1,.11-.56,1.37,1.37,0,0,1,.3-.45,1.61,1.61,0,0,1,.45-.3,1.41,1.41,0,0,1,.54-.11,1.51,1.51,0,0,1,.56.11,1.77,1.77,0,0,1,.45.3,1.57,1.57,0,0,1,.31.45A1.34,1.34,0,0,1,97.05,254.53Zm-.33,2.69v9.24H94.49v-9.24Z"/><path class="cls-2" d="M104.71,259a.61.61,0,0,1-.19.2.49.49,0,0,1-.25.06.79.79,0,0,1-.35-.09l-.43-.2a3.18,3.18,0,0,0-.55-.2,2.65,2.65,0,0,0-.73-.09,1.69,1.69,0,0,0-1,.28.87.87,0,0,0-.38.73.68.68,0,0,0,.2.49,1.66,1.66,0,0,0,.51.36,5,5,0,0,0,.72.27l.83.27c.28.1.56.21.83.33a2.71,2.71,0,0,1,.72.47,2,2,0,0,1,.52.68,2.12,2.12,0,0,1,.19.95,3.14,3.14,0,0,1-.24,1.23,2.71,2.71,0,0,1-.71,1,3.32,3.32,0,0,1-1.16.64,5.06,5.06,0,0,1-1.58.23,4.73,4.73,0,0,1-.93-.09,4.31,4.31,0,0,1-.87-.24,5.57,5.57,0,0,1-.78-.35,3.7,3.7,0,0,1-.62-.46l.51-.84a.91.91,0,0,1,.24-.24.66.66,0,0,1,.34-.08.71.71,0,0,1,.39.12c.12.08.26.16.43.25a3,3,0,0,0,.57.25,2.43,2.43,0,0,0,.83.12,2.29,2.29,0,0,0,.68-.09,1.73,1.73,0,0,0,.47-.25,1,1,0,0,0,.27-.36,1.15,1.15,0,0,0,.08-.41.76.76,0,0,0-.19-.54,1.83,1.83,0,0,0-.51-.35,4.44,4.44,0,0,0-.73-.28l-.84-.26a8.68,8.68,0,0,1-.84-.34,3,3,0,0,1-.73-.49,2.28,2.28,0,0,1-.51-.73,2.56,2.56,0,0,1-.19-1.05,2.71,2.71,0,0,1,.22-1.08,2.5,2.5,0,0,1,.66-.89,3.29,3.29,0,0,1,1.09-.61,4.4,4.4,0,0,1,1.51-.23,4.61,4.61,0,0,1,1.74.31,4,4,0,0,1,1.3.83Z"/><path class="cls-2" d="M110.13,266.6a2.45,2.45,0,0,1-1.85-.68,2.62,2.62,0,0,1-.65-1.88v-5.15h-.93a.43.43,0,0,1-.31-.12.45.45,0,0,1-.13-.35v-.88l1.48-.25.47-2.52a.43.43,0,0,1,.17-.28.53.53,0,0,1,.32-.1h1.16v2.91h2.43v1.59h-2.43v5a1,1,0,0,0,.21.67.73.73,0,0,0,.58.25,1.18,1.18,0,0,0,.35-.05l.24-.1.18-.11a.37.37,0,0,1,.16-.05.31.31,0,0,1,.17.05.69.69,0,0,1,.13.15l.67,1.08a3.48,3.48,0,0,1-1.12.61A4.07,4.07,0,0,1,110.13,266.6Z"/><path class="cls-2" d="M116.76,254.53a1.25,1.25,0,0,1-.12.54,1.52,1.52,0,0,1-.31.44,1.37,1.37,0,0,1-.45.3,1.33,1.33,0,0,1-.56.11,1.41,1.41,0,0,1-1.29-.85,1.24,1.24,0,0,1-.11-.54A1.33,1.33,0,0,1,114,254a1.37,1.37,0,0,1,.3-.45,1.71,1.71,0,0,1,.44-.3,1.46,1.46,0,0,1,1.11,0,1.77,1.77,0,0,1,.45.3,1.57,1.57,0,0,1,.31.45A1.34,1.34,0,0,1,116.76,254.53Zm-.33,2.69v9.24H114.2v-9.24Z"/><path class="cls-2" d="M118.94,266.46v-9.24h1.36a.55.55,0,0,1,.56.41l.16.72a4.88,4.88,0,0,1,.59-.52,3.91,3.91,0,0,1,.65-.4,3.09,3.09,0,0,1,.74-.26,4,4,0,0,1,.87-.09,3.34,3.34,0,0,1,1.34.25,2.63,2.63,0,0,1,1,.72,3.11,3.11,0,0,1,.59,1.11,4.56,4.56,0,0,1,.2,1.42v5.88h-2.22v-5.88a2,2,0,0,0-.39-1.31,1.45,1.45,0,0,0-1.18-.47,2.28,2.28,0,0,0-1.08.27,3.86,3.86,0,0,0-1,.71v6.68Z"/><path class="cls-2" d="M135.66,259.17a1.24,1.24,0,0,1-.19.2.47.47,0,0,1-.28.07.6.6,0,0,1-.33-.1l-.39-.23a2.91,2.91,0,0,0-.53-.24,2.48,2.48,0,0,0-.77-.1,2.37,2.37,0,0,0-1,.21,1.87,1.87,0,0,0-.73.61,2.66,2.66,0,0,0-.44,1,4.94,4.94,0,0,0-.14,1.27,5.19,5.19,0,0,0,.15,1.31,2.82,2.82,0,0,0,.46,1,2.07,2.07,0,0,0,.72.6,2.24,2.24,0,0,0,1,.2,2.51,2.51,0,0,0,.86-.13,3.22,3.22,0,0,0,.56-.29l.39-.29a.56.56,0,0,1,.37-.13.46.46,0,0,1,.41.21l.63.81a3.6,3.6,0,0,1-.8.72,4,4,0,0,1-.89.47,4.52,4.52,0,0,1-1,.25,6.55,6.55,0,0,1-1,.07,4.13,4.13,0,0,1-1.61-.32,3.61,3.61,0,0,1-1.32-.93,4.46,4.46,0,0,1-.89-1.5,5.74,5.74,0,0,1-.33-2,6,6,0,0,1,.29-1.89,4.36,4.36,0,0,1,.86-1.5,4,4,0,0,1,1.41-1,4.8,4.8,0,0,1,1.92-.36,4.57,4.57,0,0,1,1.81.33,4.4,4.4,0,0,1,1.4.95Z"/><path class="cls-2" d="M140.79,266.6a2.46,2.46,0,0,1-1.85-.68,2.61,2.61,0,0,1-.64-1.88v-5.15h-.94a.43.43,0,0,1-.44-.47v-.88l1.48-.25.47-2.52a.48.48,0,0,1,.17-.28.59.59,0,0,1,.33-.1h1.15v2.91H143v1.59h-2.43v5a.93.93,0,0,0,.22.67.7.7,0,0,0,.57.25,1.18,1.18,0,0,0,.35-.05l.24-.1.18-.11a.37.37,0,0,1,.17-.05.28.28,0,0,1,.16.05.5.5,0,0,1,.13.15l.67,1.08a3.38,3.38,0,0,1-1.12.61A4.07,4.07,0,0,1,140.79,266.6Z"/><path class="cls-2" d="M152.82,266.46h-2l-3.68-9.24H149a.69.69,0,0,1,.41.12.59.59,0,0,1,.23.29l1.78,4.94c.1.28.19.57.26.84s.13.55.18.83c0-.28.12-.55.19-.83a5.76,5.76,0,0,1,.26-.84l1.83-4.94a.57.57,0,0,1,.22-.29.65.65,0,0,1,.39-.12h1.75Z"/><path class="cls-2" d="M165,266.46h-1a1.13,1.13,0,0,1-.5-.1.6.6,0,0,1-.27-.38l-.2-.66a5.53,5.53,0,0,1-.69.55,3.43,3.43,0,0,1-.69.4,3.85,3.85,0,0,1-.77.25,4.94,4.94,0,0,1-.9.08,3.4,3.4,0,0,1-1.08-.16,2.27,2.27,0,0,1-.85-.47,2.12,2.12,0,0,1-.55-.79,2.83,2.83,0,0,1-.2-1.09,2.21,2.21,0,0,1,.27-1,2.69,2.69,0,0,1,.92-.92,5.82,5.82,0,0,1,1.7-.68,10.94,10.94,0,0,1,2.64-.27v-.54a2.08,2.08,0,0,0-.4-1.39,1.43,1.43,0,0,0-1.14-.45,2.79,2.79,0,0,0-.89.13,3.71,3.71,0,0,0-.63.28l-.49.29a1.06,1.06,0,0,1-.5.12.66.66,0,0,1-.38-.11.89.89,0,0,1-.26-.29l-.41-.71a5.49,5.49,0,0,1,3.84-1.46,3.68,3.68,0,0,1,1.45.27,3,3,0,0,1,1.07.73,3.14,3.14,0,0,1,.67,1.13,4.18,4.18,0,0,1,.23,1.44Zm-4.32-1.39a3.06,3.06,0,0,0,.63-.06,2.38,2.38,0,0,0,.55-.19,2.8,2.8,0,0,0,.49-.3,6.26,6.26,0,0,0,.49-.44v-1.54a9.29,9.29,0,0,0-1.63.12,4.75,4.75,0,0,0-1.05.31,1.39,1.39,0,0,0-.56.45,1.11,1.11,0,0,0,.18,1.4A1.55,1.55,0,0,0,160.71,265.07Z"/><path class="cls-2" d="M169.59,253.08v13.38h-2.22V253.08Z"/><path class="cls-2" d="M174.13,257.22v5.87a2,2,0,0,0,.39,1.31,1.47,1.47,0,0,0,1.18.46,2.38,2.38,0,0,0,1.08-.25,3.93,3.93,0,0,0,.95-.71v-6.68H180v9.24H178.6a.55.55,0,0,1-.57-.41l-.15-.74a7.34,7.34,0,0,1-.6.53,3.34,3.34,0,0,1-.65.4,3.49,3.49,0,0,1-.75.26,3.33,3.33,0,0,1-.86.1,3.25,3.25,0,0,1-1.33-.26,2.63,2.63,0,0,1-1-.72,3.29,3.29,0,0,1-.6-1.11,4.92,4.92,0,0,1-.2-1.42v-5.87Z"/><path class="cls-2" d="M186.15,257.08a4.34,4.34,0,0,1,1.6.28,3.37,3.37,0,0,1,1.27.81,3.91,3.91,0,0,1,.83,1.31,5,5,0,0,1,.29,1.78,2.56,2.56,0,0,1,0,.42.57.57,0,0,1-.08.26.36.36,0,0,1-.16.14.82.82,0,0,1-.25,0h-5.7a3.2,3.2,0,0,0,.76,2.09,2.38,2.38,0,0,0,1.76.66,3.3,3.3,0,0,0,.94-.12,5,5,0,0,0,.68-.28l.51-.28a.82.82,0,0,1,.43-.13.41.41,0,0,1,.23.06.43.43,0,0,1,.18.15l.64.81a3.48,3.48,0,0,1-.82.72,4.74,4.74,0,0,1-1,.47,5.24,5.24,0,0,1-1,.25,6.92,6.92,0,0,1-1,.07,5,5,0,0,1-1.79-.32,3.91,3.91,0,0,1-1.44-.94,4.59,4.59,0,0,1-1-1.55,6.12,6.12,0,0,1-.35-2.14,5,5,0,0,1,.31-1.78,4.1,4.1,0,0,1,2.27-2.42A4.61,4.61,0,0,1,186.15,257.08Zm0,1.59a2.06,2.06,0,0,0-1.52.55,2.7,2.7,0,0,0-.7,1.56h4.18A2.76,2.76,0,0,0,188,260a2,2,0,0,0-.36-.67,1.73,1.73,0,0,0-.61-.45A2.14,2.14,0,0,0,186.19,258.67Z"/><path class="cls-2" d="M197.43,259a.6.6,0,0,1-.18.2.53.53,0,0,1-.26.06.75.75,0,0,1-.34-.09l-.43-.2a3.52,3.52,0,0,0-.55-.2,2.73,2.73,0,0,0-.74-.09,1.66,1.66,0,0,0-1,.28.84.84,0,0,0-.38.73.67.67,0,0,0,.19.49,1.6,1.6,0,0,0,.52.36,5,5,0,0,0,.72.27l.83.27c.28.1.56.21.83.33a2.71,2.71,0,0,1,.72.47,2.06,2.06,0,0,1,.51.68,2.12,2.12,0,0,1,.2.95,3,3,0,0,1-.25,1.23,2.71,2.71,0,0,1-.71,1,3.37,3.37,0,0,1-1.15.64,5.1,5.1,0,0,1-1.58.23,4.73,4.73,0,0,1-.93-.09,4.23,4.23,0,0,1-.88-.24,5,5,0,0,1-.77-.35,3.41,3.41,0,0,1-.63-.46l.52-.84a.76.76,0,0,1,.23-.24.72.72,0,0,1,.73,0l.43.25a3,3,0,0,0,.57.25,2.49,2.49,0,0,0,.84.12,2.17,2.17,0,0,0,.67-.09,1.6,1.6,0,0,0,.47-.25.86.86,0,0,0,.27-.36,1,1,0,0,0,.09-.41.77.77,0,0,0-.2-.54,1.83,1.83,0,0,0-.51-.35,4.12,4.12,0,0,0-.73-.28l-.83-.26a7.76,7.76,0,0,1-.84-.34,2.83,2.83,0,0,1-.73-.49,2.28,2.28,0,0,1-.51-.73,2.55,2.55,0,0,1-.2-1.05,2.72,2.72,0,0,1,.23-1.08,2.5,2.5,0,0,1,.66-.89,3.1,3.1,0,0,1,1.09-.61,4.36,4.36,0,0,1,1.51-.23,4.59,4.59,0,0,1,1.73.31,4,4,0,0,1,1.31.83Z"/><path class="cls-2" d="M199.35,265.09a1.12,1.12,0,0,1,.1-.48,1.22,1.22,0,0,1,.26-.38,1.25,1.25,0,0,1,.41-.26,1.37,1.37,0,0,1,.54-.1,1.38,1.38,0,0,1,.59.12,1.17,1.17,0,0,1,.42.34,1.23,1.23,0,0,1,.25.48,1.9,1.9,0,0,1,.09.58,3.77,3.77,0,0,1-.13.91,4.84,4.84,0,0,1-.39,1,5.13,5.13,0,0,1-.62.92,5.5,5.5,0,0,1-.84.83l-.39-.35a.41.41,0,0,1-.16-.33.25.25,0,0,1,.05-.16.52.52,0,0,1,.12-.17l.24-.26c.1-.11.19-.23.29-.36a4.64,4.64,0,0,0,.26-.44,1.82,1.82,0,0,0,.18-.51,1.19,1.19,0,0,1-.51-.11,1,1,0,0,1-.4-.28,1.29,1.29,0,0,1-.26-.42A1.32,1.32,0,0,1,199.35,265.09Z"/><path class="cls-2" d="M209.38,257.22v5.87a2,2,0,0,0,.39,1.31,1.44,1.44,0,0,0,1.17.46,2.32,2.32,0,0,0,1.08-.25,4,4,0,0,0,1-.71v-6.68h2.22v9.24h-1.36a.55.55,0,0,1-.57-.41l-.15-.74a7.23,7.23,0,0,1-.59.53,3.67,3.67,0,0,1-.65.4,3.91,3.91,0,0,1-.75.26,3.44,3.44,0,0,1-.86.1,3.3,3.3,0,0,1-1.34-.26,2.6,2.6,0,0,1-1-.72,3,3,0,0,1-.6-1.11,4.6,4.6,0,0,1-.21-1.42v-5.87Z"/><path class="cls-2" d="M217.58,266.46v-9.24h1.35a.55.55,0,0,1,.57.41l.15.72a7.08,7.08,0,0,1,.59-.52,4.46,4.46,0,0,1,.66-.4,3.09,3.09,0,0,1,.74-.26,4,4,0,0,1,.87-.09,3.34,3.34,0,0,1,1.34.25,2.72,2.72,0,0,1,1,.72,3.27,3.27,0,0,1,.59,1.11,4.87,4.87,0,0,1,.2,1.42v5.88H223.4v-5.88a2,2,0,0,0-.39-1.31,1.46,1.46,0,0,0-1.18-.47,2.28,2.28,0,0,0-1.08.27,3.86,3.86,0,0,0-.95.71v6.68Z"/><path class="cls-2" d="M234.31,266.46a.55.55,0,0,1-.57-.41l-.18-.89a4.66,4.66,0,0,1-.6.58,3.34,3.34,0,0,1-.68.45,3.58,3.58,0,0,1-.79.3,3.65,3.65,0,0,1-.9.1,3.09,3.09,0,0,1-1.39-.32,3,3,0,0,1-1.08-.91,4.33,4.33,0,0,1-.7-1.48,7.27,7.27,0,0,1-.25-2,6.12,6.12,0,0,1,.28-1.91,4.46,4.46,0,0,1,.8-1.53,3.85,3.85,0,0,1,1.25-1,3.66,3.66,0,0,1,1.64-.36,3.08,3.08,0,0,1,1.32.25,3.13,3.13,0,0,1,1,.66v-4.88h2.23v13.38Zm-3-1.63a2.32,2.32,0,0,0,1.18-.29,3.45,3.45,0,0,0,.91-.82v-4.14a2.15,2.15,0,0,0-.82-.65,2.38,2.38,0,0,0-1-.19,2.09,2.09,0,0,0-.91.19,1.84,1.84,0,0,0-.7.57,3,3,0,0,0-.43,1,5.74,5.74,0,0,0-.16,1.4,6,6,0,0,0,.14,1.37,2.68,2.68,0,0,0,.37.92,1.51,1.51,0,0,0,.59.51A2,2,0,0,0,231.35,264.83Z"/><path class="cls-2" d="M241.88,257.08a4.39,4.39,0,0,1,1.61.28,3.45,3.45,0,0,1,1.27.81,3.74,3.74,0,0,1,.82,1.31,5,5,0,0,1,.3,1.78c0,.17,0,.31,0,.42a.73.73,0,0,1-.08.26.36.36,0,0,1-.16.14.87.87,0,0,1-.25,0h-5.71a3.21,3.21,0,0,0,.77,2.09,2.38,2.38,0,0,0,1.76.66,3.18,3.18,0,0,0,.93-.12,5.8,5.8,0,0,0,.69-.28l.51-.28a.82.82,0,0,1,.43-.13.41.41,0,0,1,.23.06.4.4,0,0,1,.17.15l.65.81a3.52,3.52,0,0,1-.83.72,4.27,4.27,0,0,1-1,.47,5.14,5.14,0,0,1-1,.25,7.05,7.05,0,0,1-1,.07,5,5,0,0,1-1.79-.32,4.09,4.09,0,0,1-1.44-.94,4.42,4.42,0,0,1-1-1.55,5.89,5.89,0,0,1-.35-2.14,5.24,5.24,0,0,1,.3-1.78,4.44,4.44,0,0,1,.88-1.45,4.13,4.13,0,0,1,1.4-1A4.56,4.56,0,0,1,241.88,257.08Zm.05,1.59a2,2,0,0,0-1.52.55,2.64,2.64,0,0,0-.7,1.56h4.17a3.12,3.12,0,0,0-.11-.82,2,2,0,0,0-.36-.67,1.77,1.77,0,0,0-.62-.45A2.06,2.06,0,0,0,241.93,258.67Z"/><path class="cls-2" d="M248.08,266.46v-7.57l-.8-.12a.82.82,0,0,1-.41-.18.46.46,0,0,1-.16-.38v-.91h1.37V257a4.51,4.51,0,0,1,.28-1.57,3.35,3.35,0,0,1,.85-1.25,4.08,4.08,0,0,1,1.43-.83,6.25,6.25,0,0,1,2-.31c.26,0,.51,0,.78,0a3.68,3.68,0,0,1,.68.14l-.07,1.15a.26.26,0,0,1-.23.25,3.29,3.29,0,0,1-.51,0,6,6,0,0,0-1.46.15,2.4,2.4,0,0,0-1,.45,1.7,1.7,0,0,0-.53.76,3.35,3.35,0,0,0-.15,1.06v.22H256v9.16h-2.22v-7.57h-3.43v7.57Z"/><path class="cls-2" d="M258.51,266.46v-9.24h1.36a.55.55,0,0,1,.56.41l.16.72a4.88,4.88,0,0,1,.59-.52,3.91,3.91,0,0,1,.65-.4,3,3,0,0,1,.75-.26,3.85,3.85,0,0,1,.86-.09,3.34,3.34,0,0,1,1.34.25,2.63,2.63,0,0,1,1,.72,3.11,3.11,0,0,1,.59,1.11,4.56,4.56,0,0,1,.2,1.42v5.88h-2.22v-5.88a2,2,0,0,0-.39-1.31,1.45,1.45,0,0,0-1.18-.47,2.28,2.28,0,0,0-1.08.27,3.86,3.86,0,0,0-.95.71v6.68Z"/><path class="cls-2" d="M272.56,257.08a4.37,4.37,0,0,1,1.6.28,3.45,3.45,0,0,1,1.27.81,3.74,3.74,0,0,1,.82,1.31,5,5,0,0,1,.3,1.78c0,.17,0,.31,0,.42a.73.73,0,0,1-.08.26.36.36,0,0,1-.16.14.87.87,0,0,1-.25,0h-5.71a3.21,3.21,0,0,0,.77,2.09,2.38,2.38,0,0,0,1.76.66,3.18,3.18,0,0,0,.93-.12,5.8,5.8,0,0,0,.69-.28l.51-.28a.82.82,0,0,1,.43-.13.41.41,0,0,1,.23.06.4.4,0,0,1,.17.15l.65.81a3.52,3.52,0,0,1-.83.72,4.27,4.27,0,0,1-1,.47,5.14,5.14,0,0,1-1,.25,7.05,7.05,0,0,1-1,.07,5,5,0,0,1-1.79-.32,4.09,4.09,0,0,1-1.44-.94,4.42,4.42,0,0,1-1-1.55,6.12,6.12,0,0,1-.35-2.14,5.24,5.24,0,0,1,.3-1.78,4.44,4.44,0,0,1,.88-1.45,4.13,4.13,0,0,1,1.4-1A4.61,4.61,0,0,1,272.56,257.08Zm0,1.59a2,2,0,0,0-1.52.55,2.64,2.64,0,0,0-.7,1.56h4.17a3.12,3.12,0,0,0-.11-.82,2,2,0,0,0-.36-.67,1.68,1.68,0,0,0-.62-.45A2.06,2.06,0,0,0,272.6,258.67Z"/><path class="cls-2" d="M284.86,266.46a.55.55,0,0,1-.57-.41l-.18-.89a4.66,4.66,0,0,1-.6.58,3.8,3.8,0,0,1-1.46.75,3.73,3.73,0,0,1-.91.1,3.06,3.06,0,0,1-2.47-1.23,4.33,4.33,0,0,1-.7-1.48,7.27,7.27,0,0,1-.25-2A6.12,6.12,0,0,1,278,260a4.64,4.64,0,0,1,.8-1.53,4,4,0,0,1,1.25-1,3.66,3.66,0,0,1,1.64-.36,3.08,3.08,0,0,1,1.32.25,3.3,3.3,0,0,1,1,.66v-4.88h2.22v13.38Zm-3-1.63a2.32,2.32,0,0,0,1.18-.29,3.65,3.65,0,0,0,.92-.82v-4.14a2.25,2.25,0,0,0-.83-.65,2.38,2.38,0,0,0-1-.19,2.09,2.09,0,0,0-.91.19,1.81,1.81,0,0,0-.69.57,2.8,2.8,0,0,0-.44,1,5.77,5.77,0,0,0-.15,1.4,6,6,0,0,0,.13,1.37,2.68,2.68,0,0,0,.37.92,1.47,1.47,0,0,0,.6.51A1.94,1.94,0,0,0,281.9,264.83Z"/><path class="cls-2" d="M296,257.08a5.06,5.06,0,0,1,1.87.33,4.18,4.18,0,0,1,1.44.94,4.36,4.36,0,0,1,.92,1.5,5.81,5.81,0,0,1,.32,2,5.87,5.87,0,0,1-.32,2,4.36,4.36,0,0,1-.92,1.5,4,4,0,0,1-1.44,1,5.06,5.06,0,0,1-1.87.33,5.12,5.12,0,0,1-1.88-.33,3.92,3.92,0,0,1-1.45-1,4.23,4.23,0,0,1-.93-1.5,5.64,5.64,0,0,1-.32-2,5.58,5.58,0,0,1,.32-2,4.23,4.23,0,0,1,.93-1.5,4.13,4.13,0,0,1,1.45-.94A5.12,5.12,0,0,1,296,257.08Zm0,7.8a2,2,0,0,0,1.7-.77,5,5,0,0,0,0-4.55,2.27,2.27,0,0,0-3.43,0,4.86,4.86,0,0,0,0,4.53A2,2,0,0,0,296,264.88Z"/><path class="cls-2" d="M302.33,266.46v-9.24h1.3a.67.67,0,0,1,.48.13.72.72,0,0,1,.18.43l.13,1.11a4.57,4.57,0,0,1,1.17-1.35,2.42,2.42,0,0,1,1.49-.49,1.91,1.91,0,0,1,1.13.32l-.28,1.66a.36.36,0,0,1-.12.23.43.43,0,0,1-.24.07,1.23,1.23,0,0,1-.37-.07,2.65,2.65,0,0,0-.62-.06,1.9,1.9,0,0,0-1.19.38,3,3,0,0,0-.84,1.12v5.76Z"/><path class="cls-2" d="M316.18,266.46a.55.55,0,0,1-.57-.41l-.18-.89a4.66,4.66,0,0,1-.6.58,3.34,3.34,0,0,1-.68.45,3.5,3.5,0,0,1-.78.3,3.73,3.73,0,0,1-.91.1,3.06,3.06,0,0,1-2.47-1.23,4.33,4.33,0,0,1-.7-1.48,7.27,7.27,0,0,1-.25-2,6.12,6.12,0,0,1,.28-1.91,4.64,4.64,0,0,1,.8-1.53,4,4,0,0,1,1.25-1,3.66,3.66,0,0,1,1.64-.36,3.08,3.08,0,0,1,1.32.25,3.13,3.13,0,0,1,1,.66v-4.88h2.23v13.38Zm-3-1.63a2.32,2.32,0,0,0,1.18-.29,3.45,3.45,0,0,0,.91-.82v-4.14a2.15,2.15,0,0,0-.82-.65,2.38,2.38,0,0,0-1-.19,2.09,2.09,0,0,0-.91.19,1.81,1.81,0,0,0-.69.57,2.8,2.8,0,0,0-.44,1,5.77,5.77,0,0,0-.15,1.4,6,6,0,0,0,.13,1.37,2.68,2.68,0,0,0,.37.92,1.51,1.51,0,0,0,.59.51A2,2,0,0,0,313.22,264.83Z"/><path class="cls-2" d="M323.76,257.08a4.37,4.37,0,0,1,1.6.28,3.45,3.45,0,0,1,1.27.81,3.91,3.91,0,0,1,.83,1.31,5.19,5.19,0,0,1,.29,1.78c0,.17,0,.31,0,.42a.73.73,0,0,1-.08.26.36.36,0,0,1-.16.14.87.87,0,0,1-.25,0h-5.71a3.21,3.21,0,0,0,.77,2.09,2.38,2.38,0,0,0,1.76.66,3.18,3.18,0,0,0,.93-.12,5.8,5.8,0,0,0,.69-.28l.51-.28a.82.82,0,0,1,.43-.13.41.41,0,0,1,.23.06.4.4,0,0,1,.17.15l.65.81a3.52,3.52,0,0,1-.83.72,4.27,4.27,0,0,1-1,.47,5.14,5.14,0,0,1-1,.25,7.05,7.05,0,0,1-1,.07,5,5,0,0,1-1.79-.32,4.09,4.09,0,0,1-1.44-.94,4.42,4.42,0,0,1-1-1.55,6.12,6.12,0,0,1-.35-2.14,5.24,5.24,0,0,1,.3-1.78,4.44,4.44,0,0,1,.88-1.45,4.13,4.13,0,0,1,1.4-1A4.61,4.61,0,0,1,323.76,257.08Zm0,1.59a2,2,0,0,0-1.52.55,2.64,2.64,0,0,0-.7,1.56h4.17a3.12,3.12,0,0,0-.11-.82,2,2,0,0,0-.36-.67,1.73,1.73,0,0,0-.61-.45A2.14,2.14,0,0,0,323.8,258.67Z"/><path class="cls-2" d="M329.56,266.46v-9.24h1.31a.66.66,0,0,1,.47.13.72.72,0,0,1,.18.43l.14,1.11a4.69,4.69,0,0,1,1.16-1.35,2.42,2.42,0,0,1,1.49-.49,1.94,1.94,0,0,1,1.14.32l-.29,1.66a.36.36,0,0,1-.12.23.43.43,0,0,1-.24.07,1.28,1.28,0,0,1-.37-.07,2.59,2.59,0,0,0-.62-.06,1.92,1.92,0,0,0-1.19.38,3,3,0,0,0-.84,1.12v5.76Z"/><path class="cls-2" d="M329.9,23.16v2H326v11h-2.42v-11h-3.93v-2Z"/><path class="cls-2" d="M333,38.71a.83.83,0,0,1-.25.36.81.81,0,0,1-.48.12h-1.66l1.73-3.7-3.74-8.55h1.95a.56.56,0,0,1,.41.13.77.77,0,0,1,.22.29l2,4.78c.06.16.12.32.17.49s.09.34.13.5c0-.17.1-.34.15-.5s.12-.33.19-.5l1.85-4.77a.7.7,0,0,1,.24-.3.63.63,0,0,1,.37-.12H338Z"/><path class="cls-2" d="M339.29,39.19V26.94h1.36a.64.64,0,0,1,.37.1.49.49,0,0,1,.2.31l.18.85a4.68,4.68,0,0,1,1.28-1,3.42,3.42,0,0,1,1.7-.4,3,3,0,0,1,1.38.32,3.11,3.11,0,0,1,1.08.91,4.36,4.36,0,0,1,.7,1.47,7.3,7.3,0,0,1,.25,2,6.43,6.43,0,0,1-.28,1.91,4.64,4.64,0,0,1-.8,1.53,3.63,3.63,0,0,1-1.25,1,3.69,3.69,0,0,1-1.64.36,3.29,3.29,0,0,1-1.33-.24,3.38,3.38,0,0,1-1-.66v3.78Zm4.32-10.66a2.2,2.2,0,0,0-1.18.29,3.49,3.49,0,0,0-.92.82v4.14a2.15,2.15,0,0,0,.83.65,2.32,2.32,0,0,0,1,.19,2.09,2.09,0,0,0,.91-.19,1.82,1.82,0,0,0,.69-.58,2.72,2.72,0,0,0,.44-1,5.75,5.75,0,0,0,.15-1.39,6.1,6.1,0,0,0-.13-1.38,2.74,2.74,0,0,0-.37-.91,1.51,1.51,0,0,0-.59-.51A1.8,1.8,0,0,0,343.61,28.53Z"/><path class="cls-2" d="M353.29,26.8a4.37,4.37,0,0,1,1.6.28,3.45,3.45,0,0,1,1.27.81A3.91,3.91,0,0,1,357,29.2a5.19,5.19,0,0,1,.29,1.78c0,.17,0,.31,0,.42a.73.73,0,0,1-.08.26.36.36,0,0,1-.16.14.82.82,0,0,1-.25,0h-5.71a3.18,3.18,0,0,0,.77,2.09,2.38,2.38,0,0,0,1.76.66,3.18,3.18,0,0,0,.93-.12,5.8,5.8,0,0,0,.69-.28l.51-.28a.82.82,0,0,1,.43-.13.41.41,0,0,1,.23.06.4.4,0,0,1,.17.15l.65.81a3.34,3.34,0,0,1-.83.72,4.27,4.27,0,0,1-1,.47,5.14,5.14,0,0,1-1,.25,7.05,7.05,0,0,1-1,.07A5,5,0,0,1,351.6,36a4.09,4.09,0,0,1-1.44-.94,4.42,4.42,0,0,1-1-1.55,6.12,6.12,0,0,1-.35-2.14,5,5,0,0,1,.31-1.78,4.25,4.25,0,0,1,.87-1.45,4.13,4.13,0,0,1,1.4-1A4.61,4.61,0,0,1,353.29,26.8Zm0,1.59a2,2,0,0,0-1.52.55,2.67,2.67,0,0,0-.7,1.56h4.17a2.75,2.75,0,0,0-.11-.82,2,2,0,0,0-.36-.67,1.83,1.83,0,0,0-.61-.45A2.14,2.14,0,0,0,353.33,28.39Z"/><path class="cls-2" d="M366.51,26.8a5.06,5.06,0,0,1,1.87.33,4.07,4.07,0,0,1,1.44.95,4.22,4.22,0,0,1,.92,1.49,5.81,5.81,0,0,1,.32,2,5.87,5.87,0,0,1-.32,2,4.36,4.36,0,0,1-.92,1.5,4,4,0,0,1-1.44,1,5.06,5.06,0,0,1-1.87.33,5.12,5.12,0,0,1-1.88-.33,3.92,3.92,0,0,1-1.45-1,4.23,4.23,0,0,1-.93-1.5,5.87,5.87,0,0,1-.32-2,5.81,5.81,0,0,1,.32-2,4.1,4.1,0,0,1,.93-1.49,4,4,0,0,1,1.45-.95A5.12,5.12,0,0,1,366.51,26.8Zm0,7.8a2,2,0,0,0,1.7-.77,3.9,3.9,0,0,0,.56-2.27,3.91,3.91,0,0,0-.56-2.28,2.27,2.27,0,0,0-3.43,0,3.9,3.9,0,0,0-.56,2.27,3.86,3.86,0,0,0,.56,2.26A2,2,0,0,0,366.51,34.6Z"/><path class="cls-2" d="M373.19,36.18V28.62l-.8-.13a.9.9,0,0,1-.42-.18.49.49,0,0,1-.15-.38V27h1.37v-.68a4,4,0,0,1,.24-1.42,2.91,2.91,0,0,1,.69-1.07,2.85,2.85,0,0,1,1.08-.68,4.11,4.11,0,0,1,1.44-.23,3.81,3.81,0,0,1,1.19.17l-.05,1.11a.32.32,0,0,1-.24.33,2,2,0,0,1-.52.06,2.55,2.55,0,0,0-.71.09,1.12,1.12,0,0,0-.52.29,1.25,1.25,0,0,0-.33.56,2.66,2.66,0,0,0-.12.86V27h2.41v1.59h-2.33v7.57Z"/><path class="cls-2" d="M387.21,36.18h-2l-3.67-9.24h1.84a.66.66,0,0,1,.41.12.61.61,0,0,1,.23.3l1.78,4.93a8,8,0,0,1,.26.84c.07.28.13.56.19.83,0-.27.11-.55.18-.83a8.12,8.12,0,0,1,.27-.84l1.82-4.93a.65.65,0,0,1,.61-.42h1.76Z"/><path class="cls-2" d="M399.42,36.18h-1a1.13,1.13,0,0,1-.5-.1.56.56,0,0,1-.26-.38l-.2-.66a7.52,7.52,0,0,1-.69.55,4.56,4.56,0,0,1-.7.41,4.5,4.5,0,0,1-.76.24,4.94,4.94,0,0,1-.9.08,3.4,3.4,0,0,1-1.08-.16,2.2,2.2,0,0,1-.85-.47,2.15,2.15,0,0,1-.56-.79,2.83,2.83,0,0,1-.2-1.09,2.25,2.25,0,0,1,.28-1,2.74,2.74,0,0,1,.91-.92,6.07,6.07,0,0,1,1.7-.68,10.94,10.94,0,0,1,2.64-.27v-.54a2.08,2.08,0,0,0-.39-1.39,1.42,1.42,0,0,0-1.14-.44,2.88,2.88,0,0,0-.9.12,4.72,4.72,0,0,0-.63.28l-.49.29a1,1,0,0,1-.49.12.64.64,0,0,1-.39-.11,1,1,0,0,1-.26-.29l-.4-.71A5.49,5.49,0,0,1,396,26.77a3.63,3.63,0,0,1,1.44.27,3,3,0,0,1,1.08.73,3.29,3.29,0,0,1,.67,1.13,4.44,4.44,0,0,1,.23,1.44Zm-4.32-1.39a3.06,3.06,0,0,0,.63-.06,2.47,2.47,0,0,0,.54-.19,2.88,2.88,0,0,0,.5-.3,6.2,6.2,0,0,0,.48-.43V32.26a9.09,9.09,0,0,0-1.62.12,4,4,0,0,0-1.05.32,1.33,1.33,0,0,0-.57.44,1.15,1.15,0,0,0,.18,1.4A1.6,1.6,0,0,0,395.1,34.79Z"/><path class="cls-2" d="M404,22.8V36.18h-2.22V22.8Z"/><path class="cls-2" d="M408.52,26.94v5.87a2,2,0,0,0,.39,1.31,1.44,1.44,0,0,0,1.17.46,2.32,2.32,0,0,0,1.08-.25,4,4,0,0,0,1-.71V26.94h2.22v9.24H413a.53.53,0,0,1-.56-.41l-.16-.74a7.23,7.23,0,0,1-.59.53,3.58,3.58,0,0,1-1.4.66,3.44,3.44,0,0,1-.86.1,3.34,3.34,0,0,1-1.34-.26,2.68,2.68,0,0,1-1-.72,3,3,0,0,1-.6-1.11,4.55,4.55,0,0,1-.21-1.42V26.94Z"/><path class="cls-2" d="M420.53,26.8a4.39,4.39,0,0,1,1.61.28,3.34,3.34,0,0,1,1.26.81,3.76,3.76,0,0,1,.83,1.31,5,5,0,0,1,.3,1.78c0,.17,0,.31,0,.42a1,1,0,0,1-.08.26.43.43,0,0,1-.16.14.87.87,0,0,1-.25,0h-5.71a3.18,3.18,0,0,0,.77,2.09,2.38,2.38,0,0,0,1.76.66,3.18,3.18,0,0,0,.93-.12,5.8,5.8,0,0,0,.69-.28l.51-.28a.82.82,0,0,1,.43-.13.44.44,0,0,1,.23.06.4.4,0,0,1,.17.15l.65.81a3.52,3.52,0,0,1-.83.72,4.49,4.49,0,0,1-1,.47,5.07,5.07,0,0,1-1,.25,6.92,6.92,0,0,1-1,.07,5,5,0,0,1-1.79-.32,4.09,4.09,0,0,1-1.44-.94,4.42,4.42,0,0,1-1-1.55,5.89,5.89,0,0,1-.35-2.14,5.24,5.24,0,0,1,.3-1.78,4.44,4.44,0,0,1,.88-1.45,4.19,4.19,0,0,1,1.39-1A4.61,4.61,0,0,1,420.53,26.8Zm.05,1.59a2,2,0,0,0-1.52.55,2.67,2.67,0,0,0-.7,1.56h4.17a2.76,2.76,0,0,0-.12-.82,1.68,1.68,0,0,0-.36-.67,1.65,1.65,0,0,0-.61-.45A2.06,2.06,0,0,0,420.58,28.39Z"/><path class="cls-1" d="M88.49,129.16a1.41,1.41,0,0,1-.11.54,1.74,1.74,0,0,1-.31.44,1.47,1.47,0,0,1-.46.3,1.3,1.3,0,0,1-.56.11,1.24,1.24,0,0,1-.54-.11,1.54,1.54,0,0,1-.45-.3,1.71,1.71,0,0,1-.3-.44,1.41,1.41,0,0,1-.11-.54,1.47,1.47,0,0,1,.11-.56,1.77,1.77,0,0,1,.3-.45,1.37,1.37,0,0,1,.45-.3,1.24,1.24,0,0,1,.54-.11,1.47,1.47,0,0,1,1,.41,1.8,1.8,0,0,1,.31.45A1.47,1.47,0,0,1,88.49,129.16Zm-.33,2.69v9.23H85.94v-9.23Z"/><path class="cls-1" d="M93.7,141.23a2.44,2.44,0,0,1-1.84-.68,2.63,2.63,0,0,1-.65-1.88v-5.16h-.93a.52.52,0,0,1-.32-.11.48.48,0,0,1-.13-.35v-.89l1.49-.24.47-2.52a.46.46,0,0,1,.16-.28.59.59,0,0,1,.33-.1h1.15v2.91h2.43v1.58H93.43v5a1,1,0,0,0,.22.67.75.75,0,0,0,.58.25,1.11,1.11,0,0,0,.34-.05l.25-.11.18-.1a.33.33,0,0,1,.16-.05.25.25,0,0,1,.16.05.51.51,0,0,1,.14.15l.66,1.08A3.33,3.33,0,0,1,95,141,4.13,4.13,0,0,1,93.7,141.23Z"/><path class="cls-1" d="M101.45,131.7a4.61,4.61,0,0,1,1.61.28,3.48,3.48,0,0,1,1.26.82,3.67,3.67,0,0,1,.83,1.31,4.92,4.92,0,0,1,.3,1.78c0,.17,0,.31,0,.42a1,1,0,0,1-.08.26.33.33,0,0,1-.16.13.62.62,0,0,1-.25,0H99.23a3.16,3.16,0,0,0,.77,2.09,2.35,2.35,0,0,0,1.76.67,2.86,2.86,0,0,0,.93-.13,3.31,3.31,0,0,0,.68-.28l.52-.28a.88.88,0,0,1,.43-.12.56.56,0,0,1,.23.05.52.52,0,0,1,.17.16l.65.81a3.77,3.77,0,0,1-.83.72,5.33,5.33,0,0,1-1,.47,5.07,5.07,0,0,1-1,.25,8.7,8.7,0,0,1-1,.07,5,5,0,0,1-1.79-.32,4,4,0,0,1-1.44-1,4.25,4.25,0,0,1-1-1.55,5.8,5.8,0,0,1-.35-2.13,5.2,5.2,0,0,1,.3-1.78A4.44,4.44,0,0,1,98.2,133a4.21,4.21,0,0,1,1.39-1A4.61,4.61,0,0,1,101.45,131.7Zm0,1.6a2,2,0,0,0-1.52.55,2.64,2.64,0,0,0-.7,1.55h4.17a2.69,2.69,0,0,0-.12-.81,1.61,1.61,0,0,0-.36-.67,1.79,1.79,0,0,0-.61-.46A2.06,2.06,0,0,0,101.5,133.3Z"/><path class="cls-1" d="M107.26,141.08v-9.23h1.36a.54.54,0,0,1,.56.4l.15.69a4.81,4.81,0,0,1,.51-.5,2.63,2.63,0,0,1,.56-.38,2.85,2.85,0,0,1,.65-.26,3,3,0,0,1,.76-.1,2.16,2.16,0,0,1,1.44.48,2.88,2.88,0,0,1,.84,1.25,2.58,2.58,0,0,1,.54-.78,2.84,2.84,0,0,1,.71-.54,3.38,3.38,0,0,1,.82-.31,4.4,4.4,0,0,1,.88-.1,3.62,3.62,0,0,1,1.36.24,2.51,2.51,0,0,1,1,.68,3,3,0,0,1,.61,1.1,4.54,4.54,0,0,1,.22,1.49v5.87H118v-5.87a2,2,0,0,0-.38-1.33,1.43,1.43,0,0,0-1.14-.45,1.61,1.61,0,0,0-.63.12,1.46,1.46,0,0,0-.86.89,2,2,0,0,0-.13.77v5.87h-2.23v-5.87a2,2,0,0,0-.37-1.35,1.38,1.38,0,0,0-1.11-.43,1.78,1.78,0,0,0-.89.24,3.14,3.14,0,0,0-.78.65v6.76Z"/><path class="cls-1" d="M130.12,127.92a4.74,4.74,0,0,1,1.64.27,3.76,3.76,0,0,1,1.28.75,3.47,3.47,0,0,1,.83,1.17,3.75,3.75,0,0,1,.3,1.52A4,4,0,0,1,134,133a5.28,5.28,0,0,1-.57,1.17,7.76,7.76,0,0,1-.83,1.08c-.32.35-.65.71-1,1.07l-2.94,3a6.87,6.87,0,0,1,.85-.19,5.64,5.64,0,0,1,.79-.07h3.34a.81.81,0,0,1,.57.2.73.73,0,0,1,.21.54v1.33h-8.92v-.74a1.29,1.29,0,0,1,.09-.46,1.11,1.11,0,0,1,.3-.45l4-4c.33-.34.63-.66.89-1a6.51,6.51,0,0,0,.66-.91,4.28,4.28,0,0,0,.4-.91,3.46,3.46,0,0,0,.14-1,2.31,2.31,0,0,0-.13-.82,1.56,1.56,0,0,0-.39-.6,1.66,1.66,0,0,0-.6-.36,2.37,2.37,0,0,0-.78-.12,2.09,2.09,0,0,0-1.32.4,2.14,2.14,0,0,0-.72,1.09.94.94,0,0,1-.3.49.8.8,0,0,1-.5.15l-.3,0-1.17-.2a4.78,4.78,0,0,1,.52-1.65,4,4,0,0,1,1-1.18,4.15,4.15,0,0,1,1.33-.71A5.29,5.29,0,0,1,130.12,127.92Z"/><path class="cls-1" d="M88.49,156.16a1.41,1.41,0,0,1-.11.54,1.74,1.74,0,0,1-.31.44,1.47,1.47,0,0,1-.46.3,1.3,1.3,0,0,1-.56.11,1.24,1.24,0,0,1-.54-.11,1.54,1.54,0,0,1-.45-.3,1.71,1.71,0,0,1-.3-.44,1.41,1.41,0,0,1-.11-.54,1.47,1.47,0,0,1,.11-.56,1.77,1.77,0,0,1,.3-.45,1.37,1.37,0,0,1,.45-.3,1.24,1.24,0,0,1,.54-.11,1.47,1.47,0,0,1,1,.41,1.8,1.8,0,0,1,.31.45A1.47,1.47,0,0,1,88.49,156.16Zm-.33,2.69v9.23H85.94v-9.23Z"/><path class="cls-1" d="M93.7,168.23a2.44,2.44,0,0,1-1.84-.68,2.63,2.63,0,0,1-.65-1.88v-5.16h-.93a.52.52,0,0,1-.32-.11.48.48,0,0,1-.13-.35v-.89l1.49-.24.47-2.52a.46.46,0,0,1,.16-.28.59.59,0,0,1,.33-.1h1.15v2.91h2.43v1.58H93.43v5a1,1,0,0,0,.22.67.75.75,0,0,0,.58.25,1.11,1.11,0,0,0,.34-.05l.25-.11.18-.1a.33.33,0,0,1,.16-.05.25.25,0,0,1,.16.05.51.51,0,0,1,.14.15l.66,1.08A3.33,3.33,0,0,1,95,168,4.13,4.13,0,0,1,93.7,168.23Z"/><path class="cls-1" d="M101.45,158.71a4.61,4.61,0,0,1,1.61.27,3.48,3.48,0,0,1,1.26.82,3.67,3.67,0,0,1,.83,1.31,4.92,4.92,0,0,1,.3,1.78c0,.17,0,.31,0,.42a1,1,0,0,1-.08.26.33.33,0,0,1-.16.13.62.62,0,0,1-.25.05H99.23a3.16,3.16,0,0,0,.77,2.08,2.35,2.35,0,0,0,1.76.67,2.86,2.86,0,0,0,.93-.13,3.31,3.31,0,0,0,.68-.28l.52-.28a.88.88,0,0,1,.43-.12.56.56,0,0,1,.23.05.52.52,0,0,1,.17.16l.65.81a3.77,3.77,0,0,1-.83.72,5.33,5.33,0,0,1-1,.47,5.07,5.07,0,0,1-1,.25,8.7,8.7,0,0,1-1,.07,5,5,0,0,1-1.79-.32,4,4,0,0,1-1.44-1,4.29,4.29,0,0,1-1-1.54,5.89,5.89,0,0,1-.35-2.14,5.2,5.2,0,0,1,.3-1.78A4.44,4.44,0,0,1,98.2,160a4.21,4.21,0,0,1,1.39-1A4.78,4.78,0,0,1,101.45,158.71Zm0,1.59a2,2,0,0,0-1.52.55,2.64,2.64,0,0,0-.7,1.55h4.17a2.69,2.69,0,0,0-.12-.81,1.61,1.61,0,0,0-.36-.67,1.79,1.79,0,0,0-.61-.46A2.06,2.06,0,0,0,101.5,160.3Z"/><path class="cls-1" d="M107.26,168.08v-9.23h1.36a.54.54,0,0,1,.56.4l.15.69a4.81,4.81,0,0,1,.51-.5,2.63,2.63,0,0,1,.56-.38,2.85,2.85,0,0,1,.65-.26,3,3,0,0,1,.76-.09,2.15,2.15,0,0,1,1.44.47,2.88,2.88,0,0,1,.84,1.25,2.58,2.58,0,0,1,.54-.78,2.84,2.84,0,0,1,.71-.54,3.38,3.38,0,0,1,.82-.31,4.38,4.38,0,0,1,.88-.09,3.63,3.63,0,0,1,1.36.23,2.51,2.51,0,0,1,1,.68,3,3,0,0,1,.61,1.1,4.54,4.54,0,0,1,.22,1.49v5.87H118v-5.87a2,2,0,0,0-.38-1.33,1.43,1.43,0,0,0-1.14-.45,1.61,1.61,0,0,0-.63.12,1.46,1.46,0,0,0-.86.89,2,2,0,0,0-.13.77v5.87h-2.23v-5.87a2,2,0,0,0-.37-1.35,1.38,1.38,0,0,0-1.11-.43,1.78,1.78,0,0,0-.89.24,3.14,3.14,0,0,0-.78.65v6.76Z"/><path class="cls-1" d="M88.49,183.16a1.41,1.41,0,0,1-.11.54,1.74,1.74,0,0,1-.31.44,1.47,1.47,0,0,1-.46.3,1.3,1.3,0,0,1-.56.11,1.24,1.24,0,0,1-.54-.11,1.54,1.54,0,0,1-.45-.3,1.71,1.71,0,0,1-.3-.44,1.41,1.41,0,0,1-.11-.54,1.47,1.47,0,0,1,.11-.56,1.77,1.77,0,0,1,.3-.45,1.37,1.37,0,0,1,.45-.3,1.24,1.24,0,0,1,.54-.11,1.47,1.47,0,0,1,1,.41,1.8,1.8,0,0,1,.31.45A1.47,1.47,0,0,1,88.49,183.16Zm-.33,2.69v9.23H85.94v-9.23Z"/><path class="cls-1" d="M93.7,195.23a2.44,2.44,0,0,1-1.84-.68,2.63,2.63,0,0,1-.65-1.88v-5.16h-.93a.52.52,0,0,1-.32-.11.48.48,0,0,1-.13-.35v-.89l1.49-.24.47-2.52a.46.46,0,0,1,.16-.28.59.59,0,0,1,.33-.1h1.15v2.91h2.43v1.58H93.43v5a1,1,0,0,0,.22.67.75.75,0,0,0,.58.25,1.11,1.11,0,0,0,.34-.05l.25-.11.18-.1a.33.33,0,0,1,.16-.05.25.25,0,0,1,.16.05.51.51,0,0,1,.14.15l.66,1.08A3.33,3.33,0,0,1,95,195,4.13,4.13,0,0,1,93.7,195.23Z"/><path class="cls-1" d="M101.45,185.71a4.61,4.61,0,0,1,1.61.27,3.48,3.48,0,0,1,1.26.82,3.67,3.67,0,0,1,.83,1.31,4.92,4.92,0,0,1,.3,1.78c0,.17,0,.31,0,.42a1,1,0,0,1-.08.26.33.33,0,0,1-.16.13.62.62,0,0,1-.25.05H99.23a3.16,3.16,0,0,0,.77,2.08,2.35,2.35,0,0,0,1.76.67,2.86,2.86,0,0,0,.93-.13,3.31,3.31,0,0,0,.68-.28l.52-.28a.88.88,0,0,1,.43-.12.56.56,0,0,1,.23.05.52.52,0,0,1,.17.16l.65.81a3.77,3.77,0,0,1-.83.72,5.33,5.33,0,0,1-1,.47,5.07,5.07,0,0,1-1,.25,8.7,8.7,0,0,1-1,.07,5,5,0,0,1-1.79-.32,4,4,0,0,1-1.44-1,4.29,4.29,0,0,1-1-1.54,5.89,5.89,0,0,1-.35-2.14,5.2,5.2,0,0,1,.3-1.78A4.44,4.44,0,0,1,98.2,187a4.21,4.21,0,0,1,1.39-1A4.78,4.78,0,0,1,101.45,185.71Zm0,1.59a2,2,0,0,0-1.52.55,2.64,2.64,0,0,0-.7,1.55h4.17a2.69,2.69,0,0,0-.12-.81,1.61,1.61,0,0,0-.36-.67,1.79,1.79,0,0,0-.61-.46A2.06,2.06,0,0,0,101.5,187.3Z"/><path class="cls-1" d="M107.26,195.08v-9.23h1.36a.54.54,0,0,1,.56.4l.15.69a4.81,4.81,0,0,1,.51-.5,2.63,2.63,0,0,1,.56-.38,2.85,2.85,0,0,1,.65-.26,3,3,0,0,1,.76-.09,2.15,2.15,0,0,1,1.44.47,2.88,2.88,0,0,1,.84,1.25,2.58,2.58,0,0,1,.54-.78,2.84,2.84,0,0,1,.71-.54,3.38,3.38,0,0,1,.82-.31,4.38,4.38,0,0,1,.88-.09,3.63,3.63,0,0,1,1.36.23,2.51,2.51,0,0,1,1,.68,3,3,0,0,1,.61,1.1,4.54,4.54,0,0,1,.22,1.49v5.87H118v-5.87a2,2,0,0,0-.38-1.33,1.43,1.43,0,0,0-1.14-.45,1.61,1.61,0,0,0-.63.12,1.46,1.46,0,0,0-.86.89,2,2,0,0,0-.13.77v5.87h-2.23v-5.87a2,2,0,0,0-.37-1.35,1.38,1.38,0,0,0-1.11-.43,1.78,1.78,0,0,0-.89.24,3.14,3.14,0,0,0-.78.65v6.76Z"/><path class="cls-1" d="M130.32,181.92a4.89,4.89,0,0,1,1.63.26,3.87,3.87,0,0,1,1.24.71A3.14,3.14,0,0,1,134,184a3.1,3.1,0,0,1,.28,1.32,4,4,0,0,1-.14,1.1,2.53,2.53,0,0,1-.41.82,2.41,2.41,0,0,1-.64.59,3.87,3.87,0,0,1-.87.41,3.35,3.35,0,0,1,1.74,1.12,3,3,0,0,1,.58,1.9,3.92,3.92,0,0,1-.36,1.72,3.8,3.8,0,0,1-1,1.26,4.33,4.33,0,0,1-1.42.77,5.66,5.66,0,0,1-1.71.26,5.85,5.85,0,0,1-1.71-.23,3.78,3.78,0,0,1-1.26-.66,4.18,4.18,0,0,1-.92-1.08,7.49,7.49,0,0,1-.65-1.48l1-.4a1.17,1.17,0,0,1,.51-.11.82.82,0,0,1,.42.1.71.71,0,0,1,.29.28,5.45,5.45,0,0,0,.35.62,2.45,2.45,0,0,0,.46.55,2.12,2.12,0,0,0,1.51.53,2.5,2.5,0,0,0,1-.18,2,2,0,0,0,.7-.48,2,2,0,0,0,.57-1.4,3.74,3.74,0,0,0-.1-.85,1.31,1.31,0,0,0-.42-.65,2.22,2.22,0,0,0-.9-.42,6.56,6.56,0,0,0-1.58-.16v-1.59a5.74,5.74,0,0,0,1.36-.14,2.46,2.46,0,0,0,.86-.4,1.34,1.34,0,0,0,.44-.62,2.22,2.22,0,0,0,.13-.79,1.84,1.84,0,0,0-.5-1.4,1.93,1.93,0,0,0-1.38-.47,2.1,2.1,0,0,0-1.32.41,2.18,2.18,0,0,0-.72,1.08,1.08,1.08,0,0,1-.3.49.78.78,0,0,1-.5.15l-.3,0-1.17-.2a4.85,4.85,0,0,1,.52-1.65,3.84,3.84,0,0,1,1-1.17,3.89,3.89,0,0,1,1.33-.72A5.27,5.27,0,0,1,130.32,181.92Z"/><path class="cls-2" d="M111.09,79.14c-1-7.51-4.65-11.85-11.63-13.64C85.84,62,88,47.51,88,47.36l2,.31c-.08.53-1.84,12.86,10,15.89,7.77,2,12.06,7,13.11,15.33Z"/><polygon class="cls-2" points="109.12 77.24 112.37 87.52 114.69 77 109.12 77.24"/><path class="cls-2" d="M180.85,248.2l-2-.1c0-.31,1.51-31.38-4-46.06C170.92,191.57,163,185.67,156,180.46c-1-.77-2-1.53-3-2.29l1.22-1.58c1,.75,2,1.5,3,2.26,7.21,5.38,15.39,11.47,19.53,22.49C182.38,216.41,180.91,246.91,180.85,248.2Z"/><polygon class="cls-2" points="156.88 176.48 147.19 171.76 153.22 180.69 156.88 176.48"/><path class="cls-2" d="M345.78,79.06l-2-.1c.27-5.45,2-13,14.16-15.41,14.76-2.95,13.37-15.67,13.3-16.21l2-.24c.64,5.21-1.65,15.76-14.9,18.41C347.71,67.64,346,73.87,345.78,79.06Z"/><polygon class="cls-2" points="342.05 77.15 344.98 87.52 347.63 77.07 342.05 77.15"/></svg>