<svg xmlns="http://www.w3.org/2000/svg" viewBox="0 0 554 554.17"><defs><style>.cls-1{font-size:20px;}.cls-1,.cls-10,.cls-16,.cls-27{font-family:GoogleSans-Medium, Google Sans;font-weight:500;}.cls-2{letter-spacing:-0.01em;}.cls-3{letter-spacing:0em;}.cls-4{letter-spacing:0em;}.cls-5{letter-spacing:-0.01em;}.cls-6{letter-spacing:0em;}.cls-7{letter-spacing:-0.02em;}.cls-8{letter-spacing:-0.01em;}.cls-9{fill:#fbf6e1;stroke:#d6d6d5;}.cls-14,.cls-17,.cls-19,.cls-20,.cls-21,.cls-24,.cls-9{stroke-miterlimit:10;}.cls-10,.cls-16{font-size:14px;}.cls-11{letter-spacing:-0.01em;}.cls-12{letter-spacing:0em;}.cls-13{letter-spacing:0em;}.cls-14,.cls-17,.cls-19,.cls-20{fill:none;}.cls-14{stroke:#656565;}.cls-15{fill:#656565;}.cls-16{letter-spacing:-0.08em;}.cls-17,.cls-19,.cls-20{stroke:#828282;}.cls-18{fill:#989898;}.cls-19{stroke-dasharray:5.78 5.78;}.cls-20{stroke-dasharray:5.43 5.43;}.cls-21{fill:#e0f0fa;stroke:#94c7ee;}.cls-22{letter-spacing:-0.01em;}.cls-23{letter-spacing:0em;}.cls-24{fill:#e4ece4;stroke:#9ac59a;}.cls-25{letter-spacing:-0.01em;}.cls-26{letter-spacing:0.01em;}.cls-27{font-size:10px;}</style></defs><g id="Layer_2" data-name="Layer 2"><g id="Layer_3" data-name="Layer 3"><text class="cls-1" transform="translate(185.17 17.16)"><tspan class="cls-2">M</tspan><tspan class="cls-3" x="17.46" y="0">e</tspan><tspan class="cls-4" x="29.06" y="0">s</tspan><tspan class="cls-3" x="38.84" y="0">s</tspan><tspan class="cls-5" x="48.72" y="0">ag</tspan><tspan x="71.64" y="0">e-q</tspan><tspan class="cls-6" x="104.44" y="0">u</tspan><tspan x="115.94" y="0">e</tspan><tspan class="cls-6" x="127.44" y="0">u</tspan><tspan x="138.94" y="0">e mo</tspan><tspan class="cls-6" x="185.06" y="0">d</tspan><tspan x="197.28" y="0">el</tspan></text><text class="cls-1" transform="translate(228.66 337.43)"><tspan class="cls-2">P</tspan><tspan x="11.66" y="0">u</tspan><tspan class="cls-7" x="23.26" y="0">b</tspan><tspan x="35.18" y="0">/</tspan><tspan class="cls-8" x="41.64" y="0">S</tspan><tspan x="52.84" y="0">ub mo</tspan><tspan class="cls-6" x="111.38" y="0">d</tspan><tspan x="123.6" y="0">el</tspan></text><rect class="cls-9" x="0.5" y="417.67" width="116" height="77"/><text class="cls-10" transform="translate(28.35 462.33)"><tspan class="cls-11">P</tspan><tspan class="cls-12" x="8.16" y="0">u</tspan><tspan class="cls-13" x="16.28" y="0">b</tspan><tspan x="24.84" y="0">lisher</tspan></text><rect class="cls-9" x="0.5" y="116.67" width="116" height="77"/><text class="cls-10" transform="translate(28.35 159.33)"><tspan class="cls-11">P</tspan><tspan class="cls-12" x="8.16" y="0">u</tspan><tspan class="cls-13" x="16.28" y="0">b</tspan><tspan x="24.84" y="0">lisher</tspan></text><line class="cls-14" x1="130.5" y1="456.67" x2="167.14" y2="457.07"/><polygon class="cls-15" points="165.13 459.95 176 457.17 165.19 454.14 165.13 459.95"/><rect class="cls-9" x="199.5" y="419.67" width="175" height="77"/><text class="cls-16" transform="translate(264.24 433.51)">T<tspan class="cls-13" x="6.76" y="0">opi</tspan><tspan class="cls-12" x="27.09" y="0">c</tspan></text><rect class="cls-17" x="298.5" y="443.67" width="58" height="44"/><path class="cls-18" d="M337.68,465.6h-17.5a2.19,2.19,0,0,0-2.18,2.19v13.12a2.2,2.2,0,0,0,2.19,2.19h17.5a2.2,2.2,0,0,0,2.19-2.19V467.79a2.2,2.2,0,0,0-2.19-2.19Zm0,4.37-8.75,5.47L320.18,470v-2.18l8.75,5.47,8.75-5.47V470Z"/><text class="cls-10" transform="translate(325.85 458.51)">1</text><polyline class="cls-17" points="278.93 484.35 278.93 487.35 275.93 487.35"/><line class="cls-19" x1="270.15" y1="487.35" x2="226.82" y2="487.35"/><polyline class="cls-17" points="223.93 487.35 220.93 487.35 220.93 484.35"/><line class="cls-20" x1="220.93" y1="478.92" x2="220.93" y2="449.06"/><polyline class="cls-17" points="220.93 446.35 220.93 443.35 223.93 443.35"/><line class="cls-19" x1="229.71" y1="443.35" x2="273.04" y2="443.35"/><polyline class="cls-17" points="275.93 443.35 278.93 443.35 278.93 446.35"/><line class="cls-20" x1="278.93" y1="451.78" x2="278.93" y2="481.64"/><path class="cls-18" d="M260.11,465.28h-17.5a2.19,2.19,0,0,0-2.18,2.19v13.12a2.2,2.2,0,0,0,2.19,2.19h17.5a2.2,2.2,0,0,0,2.19-2.19V467.47a2.2,2.2,0,0,0-2.19-2.19Zm0,4.38-8.75,5.47-8.75-5.47v-2.19l8.75,5.47,8.75-5.47v2.19Z"/><text class="cls-10" transform="translate(247.35 458.2)">2</text><rect class="cls-21" x="180.43" y="164.85" width="175" height="77"/><text class="cls-10" transform="translate(240.71 178.7)">Q<tspan class="cls-22" x="11.65" y="0">u</tspan><tspan class="cls-23" x="19.7" y="0">e</tspan><tspan class="cls-22" x="27.75" y="0">u</tspan><tspan x="35.8" y="0">e</tspan></text><rect class="cls-17" x="279.43" y="188.85" width="58" height="44"/><path class="cls-18" d="M318.61,210.78h-17.5a2.19,2.19,0,0,0-2.18,2.19v13.12a2.2,2.2,0,0,0,2.19,2.19h17.5a2.2,2.2,0,0,0,2.19-2.19V213a2.2,2.2,0,0,0-2.19-2.19Zm0,4.38-8.75,5.47-8.75-5.47V213l8.75,5.47,8.75-5.47v2.19Z"/><text class="cls-10" transform="translate(306.78 203.7)">1</text><polyline class="cls-17" points="259.86 229.53 259.86 232.53 256.86 232.53"/><line class="cls-19" x1="251.08" y1="232.53" x2="207.75" y2="232.53"/><polyline class="cls-17" points="204.86 232.53 201.86 232.53 201.86 229.53"/><line class="cls-20" x1="201.86" y1="224.1" x2="201.86" y2="194.25"/><polyline class="cls-17" points="201.86 191.53 201.86 188.53 204.86 188.53"/><line class="cls-19" x1="210.64" y1="188.53" x2="253.97" y2="188.53"/><polyline class="cls-17" points="256.86 188.53 259.86 188.53 259.86 191.53"/><line class="cls-20" x1="259.86" y1="196.96" x2="259.86" y2="226.82"/><path class="cls-18" d="M241,210.47h-17.5a2.19,2.19,0,0,0-2.18,2.18v13.13a2.2,2.2,0,0,0,2.19,2.19H241a2.2,2.2,0,0,0,2.19-2.19V212.65a2.19,2.19,0,0,0-2.19-2.18Zm0,4.37-8.75,5.47-8.75-5.47v-2.19l8.75,5.47,8.75-5.47v2.19Z"/><text class="cls-10" transform="translate(228.28 203.38)">2</text><rect class="cls-24" x="180.43" y="78.08" width="175" height="77"/><text class="cls-10" transform="translate(240.71 91.93)">Q<tspan class="cls-22" x="11.65" y="0">u</tspan><tspan class="cls-23" x="19.7" y="0">e</tspan><tspan class="cls-22" x="27.75" y="0">u</tspan><tspan x="35.8" y="0">e</tspan></text><rect class="cls-17" x="279.43" y="102.08" width="58" height="44"/><path class="cls-18" d="M318.61,124h-17.5a2.19,2.19,0,0,0-2.18,2.19v13.12a2.2,2.2,0,0,0,2.19,2.19h17.5a2.2,2.2,0,0,0,2.19-2.19V126.2a2.2,2.2,0,0,0-2.19-2.19Zm0,4.38-8.75,5.46-8.75-5.46V126.2l8.75,5.47,8.75-5.47v2.19Z"/><text class="cls-10" transform="translate(306.78 116.93)">1</text><polyline class="cls-17" points="259.86 142.76 259.86 145.76 256.86 145.76"/><line class="cls-19" x1="251.08" y1="145.76" x2="207.75" y2="145.76"/><polyline class="cls-17" points="204.86 145.76 201.86 145.76 201.86 142.76"/><line class="cls-20" x1="201.86" y1="137.33" x2="201.86" y2="107.48"/><polyline class="cls-17" points="201.86 104.76 201.86 101.76 204.86 101.76"/><line class="cls-19" x1="210.64" y1="101.76" x2="253.97" y2="101.76"/><polyline class="cls-17" points="256.86 101.76 259.86 101.76 259.86 104.76"/><line class="cls-20" x1="259.86" y1="110.19" x2="259.86" y2="140.05"/><path class="cls-18" d="M241,123.69h-17.5a2.19,2.19,0,0,0-2.18,2.19V139a2.19,2.19,0,0,0,2.19,2.18H241a2.19,2.19,0,0,0,2.19-2.18V125.88a2.2,2.2,0,0,0-2.19-2.19Zm0,4.38-8.75,5.47-8.75-5.47v-2.19l8.75,5.47,8.75-5.47v2.19Z"/><text class="cls-10" transform="translate(228.28 116.61)">2</text><rect class="cls-21" x="439.5" y="163.67" width="114" height="77"/><text class="cls-10" transform="translate(461.2 203.74)"><tspan class="cls-25">S</tspan><tspan x="7.84" y="0">u</tspan><tspan class="cls-13" x="15.96" y="0">b</tspan><tspan class="cls-26" x="24.51" y="0">s</tspan><tspan class="cls-22" x="31.43" y="0">c</tspan><tspan class="cls-12" x="39.19" y="0">riber</tspan></text><rect class="cls-24" x="438.5" y="77.67" width="115" height="77"/><text class="cls-10" transform="translate(461.41 124.51)"><tspan class="cls-25">S</tspan><tspan x="7.84" y="0">u</tspan><tspan class="cls-13" x="15.96" y="0">b</tspan><tspan class="cls-26" x="24.51" y="0">s</tspan><tspan class="cls-22" x="31.43" y="0">c</tspan><tspan class="cls-12" x="39.19" y="0">riber</tspan></text><path class="cls-18" d="M403.67,512.85H393a1.32,1.32,0,0,0-1.33,1.33v8a1.33,1.33,0,0,0,1.33,1.33h10.63a1.34,1.34,0,0,0,1.33-1.33v-8a1.33,1.33,0,0,0-1.33-1.33Zm0,2.65-5.32,3.33L393,515.5v-1.32l5.31,3.32,5.32-3.32v1.32Z"/><text class="cls-27" transform="translate(396.38 505.9)">1</text><rect class="cls-21" x="436.5" y="476.67" width="114" height="77"/><text class="cls-10" transform="translate(458.2 516.74)"><tspan class="cls-25">S</tspan><tspan x="7.84" y="0">u</tspan><tspan class="cls-13" x="15.96" y="0">b</tspan><tspan class="cls-26" x="24.51" y="0">s</tspan><tspan class="cls-22" x="31.43" y="0">c</tspan><tspan class="cls-12" x="39.19" y="0">riber</tspan></text><rect class="cls-24" x="435.5" y="378.67" width="115" height="77"/><text class="cls-10" transform="translate(458.41 425.51)"><tspan class="cls-25">S</tspan><tspan x="7.84" y="0">u</tspan><tspan class="cls-13" x="15.96" y="0">b</tspan><tspan class="cls-26" x="24.51" y="0">s</tspan><tspan class="cls-22" x="31.43" y="0">c</tspan><tspan class="cls-12" x="39.19" y="0">riber</tspan></text><line class="cls-14" x1="374.5" y1="462.67" x2="426.51" y2="422.11"/><polygon class="cls-15" points="426.74 425.62 433.5 416.67 423.16 421.04 426.74 425.62"/><line class="cls-14" x1="374.5" y1="462.67" x2="426.8" y2="507.87"/><polygon class="cls-15" points="423.4 508.78 433.5 513.67 427.2 504.38 423.4 508.78"/><path class="cls-18" d="M403.54,417.72H392.9a1.32,1.32,0,0,0-1.32,1.33v8a1.34,1.34,0,0,0,1.33,1.33h10.64a1.34,1.34,0,0,0,1.33-1.33v-8a1.33,1.33,0,0,0-1.33-1.33Zm0,2.65-5.32,3.33-5.32-3.33v-1.32l5.32,3.32,5.32-3.32v1.32Z"/><text class="cls-27" transform="translate(396.25 410.77)">1</text><line class="cls-14" x1="116.63" y1="157.28" x2="168.65" y2="116.72"/><polygon class="cls-15" points="168.87 120.23 175.63 111.28 165.3 115.65 168.87 120.23"/><line class="cls-14" x1="116.63" y1="157.28" x2="168.93" y2="202.48"/><polygon class="cls-15" points="165.53 203.39 175.63 208.28 169.33 198.99 165.53 203.39"/><line class="cls-14" x1="362.38" y1="123.39" x2="416.64" y2="123.39"/><polygon class="cls-15" points="414.66 126.29 425.5 123.39 414.66 120.48 414.66 126.29"/><line class="cls-14" x1="366.58" y1="201.77" x2="420.83" y2="201.77"/><polygon class="cls-15" points="418.85 204.67 429.69 201.77 418.85 198.86 418.85 204.67"/></g></g></svg>